# AST/ASF file generated using VICON BodyLanguage
# -----------------------------------------------
:version 1.10
:name VICON
:units
  mass 1.0
  length 0.45
  angle deg
:documentation
   .ast/.asf automatically generated from VICON data using
   VICON BodyBuilder and BodyLanguage model FoxedUp or BRILLIANT.MOD
:root
   order TX TY TZ RX RY RZ
   axis XYZ
   position 0 0 0  
   orientation 0 0 0 
:bonedata
  begin
     id 1 
     name lhipjoint
     direction 0.575328 -0.747301 0.332475 
     length 2.40933 
     axis 0 0 0  XYZ
  end
  begin
     id 2 
     name lfemur
     direction 0.34202 -0.939693 0  
     length 7.31453  
     axis 0 0 20  XYZ
    dof rx ry rz
    limits (-160.0 20.0)
           (-70.0 70.0)
           (-60.0 70.0)
  end
  begin
     id 3 
     name ltibia
     direction 0.34202 -0.939693 0   
     length 7.82185   
     axis 0 0 20   XYZ
    dof rx
    limits (-10.0 170.0)
  end
  begin
     id 4 
     name lfoot
     direction 0.0795993 -0.218697 0.972541   
     length 2.19173   
     axis -90 7.62852e-016 20   XYZ
    dof rx rz
    limits (-45.0 90.0)
           (-70.0 20.0)
  end
  begin
     id 5 
     name ltoes
     direction 1.53537e-011 -4.21894e-011 1   
     length 1.10023   
     axis -90 7.62852e-016 20   XYZ
    dof rx
    limits (-90.0 20.0)
  end
  begin
     id 6 
     name rhipjoint
     direction -0.513884 -0.783789 0.348708   
     length 2.29716  
     axis 0 0 0  XYZ 
  end
  begin
     id 7 
     name rfemur
     direction -0.34202 -0.939693 0   
     length 7.59573   
     axis 0 0 -20   XYZ
    dof rx ry rz
    limits (-160.0 20.0)
           (-70.0 70.0)
           (-70.0 60.0)
  end
  begin
     id 8 
     name rtibia
     direction -0.34202 -0.939693 0   
     length 7.66402   
     axis 0 0 -20   XYZ
    dof rx
    limits (-10.0 170.0)
 end
 begin
     id 9 
     name rfoot
     direction -0.137793 -0.378584 0.915253   
     length 2.27056  
     axis -90 -7.62852e-016 -20   XYZ
    dof rx rz
    limits (-45.0 90.0)
           (-20.0 70.0)
  end
  begin
     id 10 
     name rtoes
     direction -1.53493e-011 -4.22159e-011 1   
     length 1.11766   
     axis -90 -7.62852e-016 -20   XYZ
    dof rx
    limits (-90.0 20.0)
  end
  begin
     id 11 
     name lowerback
     direction -0.00732775 0.998356 -0.05685   
     length 2.16513   
     axis 0 0 0   XYZ
    dof rx ry rz
    limits (-20.0 45.0)
           (-30.0 30.0)
           (-30.0 30.0)
  end
  begin
     id 12 
     name upperback
     direction 0.0218081 0.999627 -0.0164647   
     length 2.16755   
     axis 0 0 0   XYZ
    dof rx ry rz
    limits (-20.0 45.0)
           (-30.0 30.0)
           (-30.0 30.0)
  end
  begin
     id 13 
     name thorax
     direction 0.02365 0.999661 0.0108914   
     length 2.16932   
     axis 0 0 0   XYZ
    dof rx ry rz
    limits (-20.0 45.0)
           (-30.0 30.0)
           (-30.0 30.0)
  end
  begin
     id 14 
     name lowerneck
     direction -0.0523929 0.978385 0.200044   
     length 1.63877   
     axis 0 0 0   XYZ
    dof rx ry rz
    limits (-20.0 45.0)
           (-30.0 30.0)
           (-30.0 30.0)
  end
  begin
     id 15 
     name upperneck
     direction 0.0448674 0.981321 -0.187074   
     length 1.69014   
     axis 0 0 0   XYZ
    dof rx ry rz
    limits (-20.0 45.0)
           (-30.0 30.0)
           (-30.0 30.0)
  end
  begin
     id 16
     name head
     direction 0.0199089 0.996118 -0.0857429  
     length 1.70094  
     axis 0 0 0   XYZ
    dof rx ry rz
    limits (-20.0 45.0)
           (-30.0 30.0)
           (-30.0 30.0)
  end
  begin
     id 17 
     name lclavicle
     direction 0.940366 0.30191 -0.156722  
     length 3.37521  
     axis 0 0 0   XYZ
    dof ry rz
    limits (-20.0 10.0)
           (0.0 20.0)
  end
  begin
     id 18 
     name lhumerus
     direction 1 -4.4897e-011 -1.7911e-027   
     length 5.25287   
     axis 180 -30 -90   XYZ
    dof rx ry rz
    limits (-60.0 90.0)
           (-90.0 90.0)
           (-90.0 90.0)
  end
  begin
     id 19
     name lradius
     direction 1 -4.48951e-011 1.04424e-027   
     length 3.51014   
     axis 180 -30 -90   XYZ
    dof rx
    limits (-10.0 170.0)
  end
  begin
     id 20
     name lwrist
     direction 1 -4.48997e-011 -9.5942e-028   
     length 1.75507   
     axis 8.48502e-016 90 90   XYZ
    dof ry
    limits (-180.0 0.0)
 end
  begin
     id 21 
     name lhand
     direction 1 -4.48831e-011 -1.90777e-027   
     length 0.706179   
     axis 1.22306e-015 90 90   XYZ
    dof rx rz
    limits (-90.0 90.0)
           (-45.0 45.0)
  end
  begin
     id 22 
     name lfingers
     direction 1 -4.49108e-011 -3.85244e-027   
     length 0.569339   
     axis 2.44611e-015 90 90   XYZ
    dof rx
    limits (0.0 90.0)
  end
  begin
     id 23
     name lthumb
     direction 0.707107 -6.34953e-011 0.707107   
     length 0.817461   
     axis -90 45 -1.62303e-014   XYZ
    dof rx rz
    limits (-45.0 45.0)
           (-45.0 45.0)
  end
  begin
     id 24 
     name rclavicle
     direction -0.905329 0.382405 -0.184787   
     length 3.30787  
     axis 0 0 0   XYZ 
    dof ry rz
    limits (-10.0 20.0)
           (-20.0 0.0)
  end
  begin
     id 25 
     name rhumerus
     direction -1 -4.48953e-011 -9.15316e-029  
     length 5.28721   
     axis 180 30 90   XYZ
    dof rx ry rz
    limits (-90.0 60.0)
           (-90.0 90.0)
           (-90.0 90.0)
  end
  begin
     id 26 
     name rradius
     direction -1 -4.48987e-011 9.37824e-028   
     length 3.50544   
     axis 180 30 90   XYZ
    dof rx
    limits (-10.0 170.0)
  end
  begin
     id 27 
     name rwrist
     direction -1 -4.48967e-011 -9.58414e-028   
     length 1.75272   
     axis 8.48502e-016 -90 -90   XYZ
    dof ry
    limits (-180.0 0.0)
  end
  begin
     id 28
     name rhand
     direction -1 -4.48904e-011 -1.91266e-027   
     length 0.884996   
     axis 1.22306e-015 -90 -90   XYZ
    dof rx rz
    limits (-90.0 90.0)
           (-45.0 45.0)
  end
  begin
     id 29
     name rfingers
     direction -1 -4.4909e-011 -3.85015e-027   
     length 0.713507   
     axis 2.44611e-015 -90 -90   XYZ
    dof rx
    limits (0.0 90.0)
  end
  begin
     id 30
     name rthumb
     direction -0.707107 -6.34853e-011 0.707107   
     length 1.02446   
     axis -90 -45 1.62303e-014   XYZ
    dof rx rz
    limits (-45.0 45.0)
           (-45.0 45.0)
  end
:hierarchy
  begin
    root lhipjoint rhipjoint lowerback
    lhipjoint lfemur
    lfemur ltibia
    ltibia lfoot
    lfoot ltoes
    rhipjoint rfemur
    rfemur rtibia
    rtibia rfoot
    rfoot rtoes
    lowerback upperback
    upperback thorax
    thorax lowerneck lclavicle rclavicle
    lowerneck upperneck
    upperneck head
    lclavicle lhumerus
    lhumerus lradius
    lradius lwrist
    lwrist lhand lthumb
    lhand lfingers
    rclavicle rhumerus
    rhumerus rradius
    rradius rwrist
    rwrist rhand rthumb
    rhand rfingers
  end

#!OML:ASF F:\twosubjects\two\Thursday\Session 1\justin.ASF
:FULLY-SPECIFIED
:DEGREES
132
root -6.69594 17.9754 10.3136 2.88679 9.21128 -1.56176
lowerback 0.797076 5.30325 -1.05044
upperback 1.39645 7.06176 2.15835
thorax 0.590257 3.51763 2.7536
lowerneck -19.6883 14.1923 -0.768526
upperneck 19.6133 21.5632 -6.14309
head 10.0912 9.23075 1.14577
rclavicle 8.15017e-015 -1.31198e-014
rhumerus -18.4078 -8.6393 -80.1611
rradius 43.5368
rwrist -3.62109
rhand -19.3787 16.3908
rfingers 7.12502
rthumb 6.93955 -13.4755
lclavicle 8.15017e-015 -1.31198e-014
lhumerus -30.0912 30.8987 78.1884
lradius 18.1981
lwrist -22.7283
lhand -2.85833 40.5118
lfingers 7.12502
lthumb 22.8499 69.1782
rfemur -1.94043 -5.71081 22.072
rtibia 44.7769
rfoot -9.64424 -3.02056
rtoes -25.7375
lfemur -24.5255 0.749257 -17.9049
ltibia 24.3096
lfoot -5.41415 -7.97752
ltoes -25.3451
133
root -6.65175 17.9519 10.4661 2.63053 9.06819 -1.38378
lowerback 1.19336 5.26687 -1.25002
upperback 1.21503 7.01341 2.11859
thorax 0.167042 3.49845 2.77016
lowerneck -17.7301 14.3455 0.168801
upperneck 18.166 21.6172 -7.51085
head 9.51673 9.3356 0.410626
rclavicle 1.49089e-014 0
rhumerus -19.0733 -9.09187 -80.284
rradius 43.6742
rwrist -3.2892
rhand -19.2962 16.4669
rfingers 7.12502
rthumb 7.01928 -13.3967
lclavicle 1.49089e-014 0
lhumerus -30.1684 28.7116 79.0497
lradius 18.6959
lwrist -20.8453
lhand -3.37622 40.9845
lfingers 7.12502
lthumb 22.3529 69.7114
rfemur -3.10592 -5.94563 21.5419
rtibia 47.5653
rfoot -6.81413 -2.36472
rtoes -22.1931
lfemur -23.743 0.660161 -18.0979
ltibia 24.5005
lfoot -6.13807 -7.54617
ltoes -29.2193
134
root -6.604 17.9612 10.6214 2.36182 8.97684 -1.28192
lowerback 1.53135 5.23098 -1.30395
upperback 1.0401 6.96535 2.08896
thorax -0.200796 3.47959 2.7253
lowerneck -17.7086 14.3588 0.130049
upperneck 18.9118 21.6624 -7.1122
head 9.7209 9.35272 0.573403
rclavicle -2.28602e-015 -6.36111e-015
rhumerus -19.7772 -9.47583 -80.3649
rradius 43.7558
rwrist -3.06038
rhand -19.3934 16.3795
rfingers 7.12502
rthumb 6.92537 -13.4872
lclavicle -2.28602e-015 -6.36111e-015
lhumerus -30.2549 27.6954 79.3942
lradius 18.7528
lwrist -20.2582
lhand -2.9725 40.9663
lfingers 7.12502
lthumb 22.7404 69.6462
rfemur -4.2856 -6.06065 21.1155
rtibia 50.0953
rfoot -3.86164 -1.66779
rtoes -17.2345
lfemur -22.9145 0.68663 -18.2809
ltibia 24.8428
lfoot -6.92684 -7.04091
ltoes -29.9298
135
root -6.54908 17.9979 10.7769 2.36017 8.889 -0.677976
lowerback 1.4503 5.15945 -1.81882
upperback 1.00137 6.86401 1.8896
thorax -0.225057 3.42815 2.8119
lowerneck -18.4247 14.3786 -0.321387
upperneck 19.896 21.7401 -6.21784
head 10.0318 9.3696 1.01176
rclavicle 4.62671e-014 -1.98785e-015
rhumerus -20.1346 -9.73049 -80.5318
rradius 43.7107
rwrist -3.0036
rhand -19.2811 16.0851
rfingers 7.12502
rthumb 7.03376 -13.778
lclavicle 4.62671e-014 -1.98785e-015
lhumerus -30.0499 28.3444 79.1265
lradius 18.3623
lwrist -21.4795
lhand -1.88493 40.7154
lfingers 7.12502
lthumb 23.7838 69.2634
rfemur -5.5988 -6.264 20.0664
rtibia 52.3432
rfoot -0.771761 -0.692038
rtoes -11.6126
lfemur -22.3681 0.90199 -19.1606
ltibia 25.4112
lfoot -7.70619 -6.80296
ltoes -26.4725
136
root -6.50213 18.0215 10.9331 2.21667 8.72985 -0.349049
lowerback 1.20003 5.04548 -2.16673
upperback 1.17998 6.7114 1.83611
thorax 0.0743178 3.34473 2.98711
lowerneck -17.676 14.5005 -0.0785054
upperneck 19.4858 21.8499 -6.53393
head 9.8243 9.45814 0.824975
rclavicle 4.90998e-014 2.78299e-015
rhumerus -20.1794 -9.84901 -80.7301
rradius 43.7074
rwrist -2.88979
rhand -19.0383 15.8605
rfingers 7.12502
rthumb 7.26819 -13.9947
lclavicle 4.90998e-014 2.78299e-015
lhumerus -29.5143 28.3492 79.3347
lradius 18.2527
lwrist -21.8388
lhand -2.00872 39.999
lfingers 7.12502
lthumb 23.665 68.5623
rfemur -6.69741 -6.34165 19.3984
rtibia 54.397
rfoot 1.8874 0.157726
rtoes -6.98446
lfemur -21.8049 1.05839 -19.6376
ltibia 26.1296
lfoot -8.56529 -6.42427
ltoes -24.2346
137
root -6.46435 18.0279 11.0897 1.74493 8.57531 -0.695514
lowerback 0.942494 4.93795 -1.83665
upperback 1.61891 6.57133 2.00143
thorax 0.695585 3.2628 3.02955
lowerneck -18.316 14.4942 -0.593713
upperneck 19.887 21.9993 -6.32331
head 10.0013 9.46317 1.04215
rclavicle -1.60519e-014 -1.98785e-014
rhumerus -19.9077 -10.024 -80.9188
rradius 43.6913
rwrist -2.62961
rhand -18.9759 15.9347
rfingers 7.12502
rthumb 7.32844 -13.9183
lclavicle -1.60519e-014 -1.98785e-014
lhumerus -28.4318 27.6631 80.1301
lradius 18.1218
lwrist -21.3533
lhand -2.88549 39.4282
lfingers 7.12502
lthumb 22.8239 68.0978
rfemur -7.51923 -6.38315 19.602
rtibia 56.3931
rfoot 3.71646 0.3518
rtoes -4.79769
lfemur -20.9446 1.10214 -19.2394
ltibia 26.7509
lfoot -9.4187 -5.95224
ltoes -24.0535
138
root -6.42959 18.034 11.2401 1.30321 8.51266 -0.855627
lowerback 0.939323 4.8415 -1.65891
upperback 1.92799 6.44097 2.07688
thorax 1.03418 3.19115 3.03
lowerneck -17.3845 14.5271 0.0526635
upperneck 19.2621 22.0212 -7.31922
head 9.82158 9.47942 0.564208
rclavicle 1.13208e-013 -5.96354e-015
rhumerus -19.7219 -10.0461 -81.0751
rradius 43.365
rwrist -2.77622
rhand -18.9119 16.1221
rfingers 7.12502
rthumb 7.39016 -13.7289
lclavicle 1.13208e-013 -5.96354e-015
lhumerus -27.484 27.0489 80.7844
lradius 18.0735
lwrist -21.2665
lhand -3.20648 39.8127
lfingers 7.12502
lthumb 22.5158 68.52
rfemur -8.37661 -6.65099 19.6074
rtibia 58.4168
rfoot 4.4586 -0.321403
rtoes -4.03339
lfemur -20.0342 1.0515 -19.0412
ltibia 27.0791
lfoot -10.0792 -5.6279
ltoes -24.0186
139
root -6.39453 18.0435 11.3836 1.18244 8.3858 -0.255308
lowerback 1.27192 4.76848 -2.2811
upperback 1.75488 6.33908 1.9117
thorax 0.629391 3.14235 3.1627
lowerneck -18.0297 14.6207 -0.20485
upperneck 20.6011 22.2416 -6.53223
head 10.2888 9.53785 0.980056
rclavicle -3.65267e-014 4.37326e-015
rhumerus -20.3326 -9.95622 -81.1322
rradius 43.1587
rwrist -3.11617
rhand -18.5231 16.2659
rfingers 7.12502
rthumb 7.76548 -13.5715
lclavicle -3.65267e-014 4.37326e-015
lhumerus -27.3409 25.6309 81.252
lradius 18.5076
lwrist -20.6563
lhand -3.3079 40.5682
lfingers 7.12502
lthumb 22.4184 69.2872
rfemur -9.52709 -7.06782 18.7294
rtibia 60.4658
rfoot 4.20258 -1.37302
rtoes -5.6411
lfemur -19.2606 1.07823 -19.7109
ltibia 27.1248
lfoot -10.5386 -5.41067
ltoes -23.4238
140
root -6.34862 18.0499 11.5242 1.24131 8.30917 0.542458
lowerback 1.3694 4.68075 -2.99801
upperback 1.57487 6.21577 1.67408
thorax 0.350199 3.08239 3.29736
lowerneck -15.9317 14.6649 0.823277
upperneck 19.5326 22.1296 -7.63844
head 9.79229 9.59184 0.287827
rclavicle 2.03754e-015 1.19271e-015
rhumerus -20.9432 -10.1795 -81.155
rradius 43.0272
rwrist -2.8997
rhand -18.2246 16.2852
rfingers 7.12502
rthumb 8.05352 -13.5413
lclavicle 2.03754e-015 1.19271e-015
lhumerus -27.2218 23.9135 81.8191
lradius 19.022
lwrist -19.699
lhand -3.0018 40.7377
lfingers 7.12502
lthumb 22.7122 69.421
rfemur -10.8446 -7.68693 17.5612
rtibia 62.4427
rfoot 3.35932 -2.32034
rtoes -9.15297
lfemur -18.5109 1.07009 -20.6727
ltibia 26.942
lfoot -10.8682 -5.16009
ltoes -22.8642
141
root -6.3042 18.0596 11.6642 1.09335 8.45832 0.836835
lowerback 1.33956 4.59308 -3.13526
upperback 1.6715 6.0994 1.57796
thorax 0.471791 3.01956 3.28581
lowerneck -17.4524 14.5544 -0.102878
upperneck 21.3237 22.1556 -6.27444
head 10.4206 9.51563 1.02106
rclavicle -1.57537e-014 1.15295e-014
rhumerus -20.9687 -10.5795 -81.129
rradius 42.5195
rwrist -2.62962
rhand -18.3546 16.1664
rfingers 7.12502
rthumb 7.92812 -13.6649
lclavicle -1.57537e-014 1.15295e-014
lhumerus -26.8044 22.6834 82.4343
lradius 19.5477
lwrist -19.4696
lhand -1.5394 40.6932
lfingers 7.12502
lthumb 24.1151 69.1976
rfemur -11.9151 -8.33039 16.9833
rtibia 64.2247
rfoot 2.1798 -3.62092
rtoes -9.73537
lfemur -17.567 0.916538 -21.0871
ltibia 26.6255
lfoot -11.0658 -5.02436
ltoes -22.372
